<?xml version="1.0" standalone="no"?>
<!DOCTYPE svg PUBLIC "-//W3C//DTD SVG 20010904//EN"
 "http://www.w3.org/TR/2001/REC-SVG-20010904/DTD/svg10.dtd">
<svg version="1.0" xmlns="http://www.w3.org/2000/svg"
 width="987.000000pt" height="374.000000pt" viewBox="0 0 987.000000 374.000000"
 preserveAspectRatio="xMidYMid meet">

<g transform="translate(0.000000,374.000000) scale(0.100000,-0.100000)"
fill="#000000" stroke="none">
<path d="M740 3060 l0 -240 -245 0 -245 0 0 -1195 0 -1195 469 0 c418 0 470 2
475 16 3 9 6 225 6 480 l0 464 480 0 480 0 0 -464 c0 -255 3 -471 6 -480 5
-14 57 -16 475 -16 l469 0 0 1195 0 1195 -234 0 c-204 0 -235 2 -240 16 -3 9
-6 117 -6 240 l0 224 -945 0 -945 0 0 -240z m1420 -715 l0 -475 -480 0 -480 0
0 475 0 475 480 0 480 0 0 -475z"/>
<path d="M3650 3215 l0 -85 -75 0 -75 0 0 -155 0 -155 475 0 475 0 0 -1120 0
-1120 90 0 90 0 0 -75 0 -75 300 0 300 0 0 75 0 75 90 0 90 0 0 1120 0 1120
475 0 475 0 0 170 0 170 -70 0 -70 0 0 70 0 70 -1285 0 -1285 0 0 -85z"/>
<path d="M6910 3245 l0 -55 -90 0 -90 0 0 -185 0 -185 475 0 475 0 0 -1105 0
-1105 110 0 110 0 0 -90 0 -90 295 0 295 0 0 90 0 90 75 0 75 0 0 1105 0 1105
475 0 475 0 0 185 0 185 -90 0 -90 0 0 55 0 55 -1250 0 -1250 0 0 -55z"/>
</g>
</svg>
