<?xml version="1.0" standalone="no"?>
<!DOCTYPE svg PUBLIC "-//W3C//DTD SVG 20010904//EN"
 "http://www.w3.org/TR/2001/REC-SVG-20010904/DTD/svg10.dtd">
<svg version="1.0" xmlns="http://www.w3.org/2000/svg"
 width="750.000000pt" height="726.000000pt" viewBox="0 0 750.000000 726.000000"
 preserveAspectRatio="xMidYMid meet">
<metadata>
Created by potrace 1.10, written by Peter Selinger 2001-2011
</metadata>
<g transform="translate(0.000000,726.000000) scale(0.100000,-0.100000)"
fill="#000000" stroke="none">
<path d="M1995 6420 c-3 -6 -6 -196 -6 -423 1 -248 -3 -418 -9 -427 -8 -13
-76 -17 -442 -25 l-433 -10 -3 -2191 c-2 -1771 0 -2193 11 -2202 19 -16 1718
4 1729 21 4 6 8 400 8 875 l0 862 893 -2 892 -3 5 -880 5 -880 870 0 870 0 3
2194 c1 1613 -1 2197 -9 2207 -9 11 -91 14 -435 14 -233 0 -425 1 -426 3 -1 1
-5 198 -8 437 l-5 435 -1752 3 c-1169 1 -1754 -1 -1758 -8z m2643 -1730 c1
-476 0 -875 -3 -887 l-5 -23 -874 0 c-481 0 -881 3 -890 6 -14 6 -16 93 -16
883 0 483 3 881 7 884 3 4 405 6 892 5 l886 -3 3 -865z m1390 525 c10 -4 12
-16 8 -43 -4 -20 -3 -42 2 -49 4 -6 34 -13 67 -15 l60 -3 3 -42 3 -43 -208 0
c-114 0 -214 -4 -221 -9 -11 -7 -14 -101 -13 -515 l1 -506 -25 -6 c-14 -3 -32
-3 -41 0 -26 10 -53 -12 -56 -47 l-3 -32 -90 0 -90 0 -1 30 c0 17 -1 35 -2 42
-1 7 -24 13 -58 15 l-56 3 1 496 c2 445 0 498 -14 513 -14 14 -46 16 -226 16
l-209 0 0 35 0 35 58 0 c32 0 63 5 70 12 7 7 12 35 12 63 0 29 2 54 4 56 6 6
1008 0 1024 -6z m4 -2464 c-4 -60 9 -71 80 -71 l59 0 -3 -42 -3 -43 -207 0
c-125 0 -211 -4 -217 -10 -6 -6 -11 -195 -12 -517 l-2 -508 -46 0 c-57 0 -68
-7 -73 -45 l-3 -30 -83 -5 c-93 -6 -105 0 -97 46 8 45 -7 59 -65 59 l-51 0 1
492 1 492 -23 15 c-18 12 -63 14 -223 14 l-200 -1 -3 37 -3 37 61 -3 c73 -3
80 4 80 80 l0 52 518 -2 517 -3 -3 -44z"/>
</g>
</svg>
